# xmcd
#
# Track frame offsets:
#	150
#	23078
#	45310
#	67063
#	87896
#	108977
#	124493
#	149528
#	183844
#	206898
#
# Disc length: 3058 seconds
#
# Revision: 37
# Processed by: cddbd v1.5.2PL0 Copyright (c) Steve Scherf et al.
# Submitted via: Jack! The Knife 20 Magnifico
#
DISCID=8f0bf00a
DTITLE=Deep Purple - The House Of Blue Light
DYEAR=1987
DGENRE=Hard Rock
TTITLE0=Bad Attitude
TTITLE1=The Unwritten Law
TTITLE2=Call Of The Wild
TTITLE3=Mad Dog
TTITLE4=Black and White
TTITLE5=Hard Lovin' Woman
TTITLE6=The Spanish Archer
TTITLE7=Strangeways
TTITLE8=Mitzi Dupree
TTITLE9=Dead Or Alive
EXTD=Roger Glover and Deep Purple
EXTT0=Blackmore, Gillan, Glover, Lord
EXTT1=Blackmore, Gillan, Glover, Paice
EXTT2=Gillan, Blackmore, Glover, Lord
EXTT3=Blackmore, Gillan, Glover
EXTT4=Blackmore, Gillan, Glover, Lord
EXTT5=Blackmore, Gillan, Glover
EXTT6=Blackmore, Gillan, Glover
EXTT7=Blackmore, Gillan, Glover
EXTT8=Blackmore, Gillan, Glover
EXTT9=Blackmore, Gillan, Glover
PLAYORDER=
